<svg width="355" height="373" viewBox="0 0 355 373" fill="none" xmlns="http://www.w3.org/2000/svg">
<path d="M0 152.261C0 143.363 7.20812 136.149 16.0998 136.149H102.234C111.125 136.149 118.333 143.363 118.333 152.261V238.462C118.333 247.361 125.541 254.575 134.433 254.575H220.567C229.459 254.575 236.667 261.788 236.667 270.687V356.888C236.667 365.786 229.459 373 220.567 373H16.0998C7.20811 373 0 365.786 0 356.888V152.261Z" fill="url(#paint0_linear_5_1116)"/>
<path d="M0 16.1123C0 7.21373 7.20811 0 16.0998 0H102.234C111.125 0 118.333 7.21373 118.333 16.1123V102.313C118.333 111.212 111.125 118.425 102.234 118.425H16.0998C7.20811 118.425 0 111.212 0 102.313V16.1123Z" fill="url(#paint1_linear_5_1116)"/>
<path d="M254.376 270.687C254.376 261.788 261.585 254.575 270.476 254.575H338.9C347.792 254.575 355 261.788 355 270.687V356.888C355 365.786 347.792 373 338.9 373H270.476C261.585 373 254.376 365.786 254.376 356.888V270.687Z" fill="url(#paint2_linear_5_1116)"/>
<path d="M236.267 64.5446C240.979 59.8184 248.617 59.8184 253.329 64.5446L292.145 103.481C296.856 108.208 296.856 115.87 292.145 120.597L281.268 131.507C276.556 136.234 268.917 136.234 264.206 131.507L253.329 120.597C248.617 115.87 240.979 115.87 236.267 120.597L225.39 131.507C220.679 136.234 213.04 136.234 208.328 131.507L197.451 120.597C192.74 115.87 192.74 108.208 197.451 103.481L236.267 64.5446Z" fill="url(#paint3_linear_5_1116)"/>
<path d="M176.386 144.076C181.14 136.707 191.889 136.707 196.643 144.076L237.093 206.773C240.184 211.564 239.518 217.87 235.495 221.906L222.984 234.455C218.273 239.182 210.634 239.182 205.922 234.455L195.045 223.544C190.334 218.818 182.695 218.818 177.984 223.544L167.107 234.455C162.395 239.182 154.756 239.182 150.045 234.455L137.534 221.906C133.511 217.87 132.845 211.564 135.936 206.773L176.386 144.076Z" fill="url(#paint4_linear_5_1116)"/>
<path d="M292.357 144.076C297.111 136.707 307.86 136.707 312.614 144.076L353.064 206.773C356.155 211.564 355.489 217.87 351.466 221.906L338.955 234.455C334.244 239.182 326.605 239.182 321.893 234.455L311.016 223.544C306.305 218.818 298.666 218.818 293.955 223.544L283.078 234.455C278.366 239.182 270.727 239.182 266.016 234.455L253.505 221.906C249.482 217.87 248.816 211.564 251.907 206.773L292.357 144.076Z" fill="url(#paint5_linear_5_1116)"/>
<path d="M223.679 162.839C219.851 158.999 219.851 152.773 223.679 148.933C227.507 145.093 233.714 145.093 237.542 148.933C241.37 152.773 247.577 152.773 251.405 148.933C255.233 145.093 261.44 145.093 265.268 148.933C269.096 152.773 269.096 158.999 265.268 162.839L253.004 175.141C248.293 179.867 240.654 179.867 235.942 175.141L223.679 162.839Z" fill="url(#paint6_linear_5_1116)"/>
<defs>
<linearGradient id="paint0_linear_5_1116" x1="177.5" y1="0" x2="177.5" y2="373" gradientUnits="userSpaceOnUse">
<stop stop-color="#1D1D1D"/>
<stop offset="0.37668" stop-color="#1D1D1D" stop-opacity="0.924664"/>
<stop offset="1" stop-color="#1D1D1D" stop-opacity="0.8"/>
</linearGradient>
<linearGradient id="paint1_linear_5_1116" x1="177.5" y1="0" x2="177.5" y2="373" gradientUnits="userSpaceOnUse">
<stop stop-color="#1D1D1D"/>
<stop offset="0.37668" stop-color="#1D1D1D" stop-opacity="0.924664"/>
<stop offset="1" stop-color="#1D1D1D" stop-opacity="0.8"/>
</linearGradient>
<linearGradient id="paint2_linear_5_1116" x1="177.5" y1="0" x2="177.5" y2="373" gradientUnits="userSpaceOnUse">
<stop stop-color="#1D1D1D"/>
<stop offset="0.37668" stop-color="#1D1D1D" stop-opacity="0.924664"/>
<stop offset="1" stop-color="#1D1D1D" stop-opacity="0.8"/>
</linearGradient>
<linearGradient id="paint3_linear_5_1116" x1="244.5" y1="61" x2="244.5" y2="238" gradientUnits="userSpaceOnUse">
<stop stop-color="#1D1D1D"/>
<stop offset="1" stop-color="#1D1D1D" stop-opacity="0.8"/>
</linearGradient>
<linearGradient id="paint4_linear_5_1116" x1="244.5" y1="61" x2="244.5" y2="238" gradientUnits="userSpaceOnUse">
<stop stop-color="#1D1D1D"/>
<stop offset="1" stop-color="#1D1D1D" stop-opacity="0.8"/>
</linearGradient>
<linearGradient id="paint5_linear_5_1116" x1="244.5" y1="61" x2="244.5" y2="238" gradientUnits="userSpaceOnUse">
<stop stop-color="#1D1D1D"/>
<stop offset="1" stop-color="#1D1D1D" stop-opacity="0.8"/>
</linearGradient>
<linearGradient id="paint6_linear_5_1116" x1="244.5" y1="61" x2="244.5" y2="238" gradientUnits="userSpaceOnUse">
<stop stop-color="#1D1D1D"/>
<stop offset="1" stop-color="#1D1D1D" stop-opacity="0.8"/>
</linearGradient>
</defs>
</svg>
