<svg width="594" height="594" viewBox="0 0 594 594" fill="none" xmlns="http://www.w3.org/2000/svg">
<path d="M14 242.475C14 228.304 25.4924 216.816 39.6689 216.816H176.998C191.174 216.816 202.667 228.304 202.667 242.475V379.749C202.667 393.92 214.159 405.408 228.336 405.408H365.664C379.841 405.408 391.333 416.896 391.333 431.067V568.341C391.333 582.512 379.841 594 365.664 594H39.6689C25.4924 594 14 582.512 14 568.341V242.475Z" fill="#C6FF53"/>
<path d="M14 25.6587C14 11.4878 25.4924 0 39.6689 0H176.998C191.174 0 202.667 11.4878 202.667 25.6587V162.933C202.667 177.104 191.174 188.592 176.998 188.592H39.6689C25.4924 188.592 14 177.104 14 162.933V25.6587Z" fill="#C6FF53"/>
<path d="M419.569 431.067C419.569 416.896 431.062 405.408 445.238 405.408H554.331C568.508 405.408 580 416.896 580 431.067V568.341C580 582.512 568.508 594 554.331 594H445.238C431.062 594 419.569 582.512 419.569 568.341V431.067Z" fill="#C6FF53"/>
<path d="M390.696 102.787C398.208 95.2605 410.387 95.2605 417.899 102.787L479.786 164.794C487.298 172.32 487.298 184.523 479.786 192.049L462.444 209.425C454.932 216.951 442.753 216.951 435.241 209.425L417.899 192.049C410.387 184.523 398.208 184.523 390.696 192.049L373.354 209.425C365.842 216.951 353.663 216.951 346.151 209.425L328.809 192.049C321.298 184.523 321.298 172.32 328.809 164.794L390.696 102.787Z" fill="#C6FF53"/>
<path d="M295.224 229.44C302.804 217.705 319.941 217.705 327.521 229.44L392.013 329.284C396.941 336.914 395.88 346.957 389.466 353.383L369.519 373.369C362.007 380.895 349.828 380.895 342.316 373.369L324.974 355.993C317.462 348.467 305.283 348.467 297.771 355.993L280.429 373.369C272.917 380.895 260.738 380.895 253.226 373.369L233.279 353.383C226.865 346.957 225.804 336.914 230.732 329.284L295.224 229.44Z" fill="#C6FF53"/>
<path d="M480.124 229.44C487.704 217.705 504.841 217.705 512.421 229.44L576.913 329.284C581.841 336.914 580.78 346.957 574.366 353.383L554.419 373.369C546.907 380.895 534.728 380.895 527.216 373.369L509.874 355.993C502.362 348.467 490.183 348.467 482.671 355.993L465.329 373.369C457.817 380.895 445.638 380.895 438.126 373.369L418.18 353.383C411.766 346.957 410.704 336.914 415.632 329.284L480.124 229.44Z" fill="#C6FF53"/>
<path d="M370.627 259.321C364.523 253.205 364.523 243.291 370.627 237.175C376.73 231.06 386.626 231.06 392.729 237.175C398.832 243.291 408.728 243.291 414.831 237.175C420.935 231.06 430.83 231.06 436.934 237.175C443.037 243.291 443.037 253.205 436.934 259.321L417.382 278.911C409.87 286.437 397.691 286.437 390.179 278.911L370.627 259.321Z" fill="#C6FF53"/>
</svg>
